<svg width="281" height="166" viewBox="0 0 281 166" fill="none" xmlns="http://www.w3.org/2000/svg">
<g clip-path="url(#clip0_14_195)">
<path d="M54.571 0.54731C47.2378 1.34495 41.0844 3.57834 38.1192 6.54556C35.9831 8.68324 35.6005 10.2466 35.9193 15.7663C36.27 22.0198 38.2787 36.154 39.1076 38.3555C39.267 38.7384 38.7888 38.9617 37.1309 39.3765C27.821 41.6737 20.2965 45.63 17.6502 49.6501C14.5575 54.2764 15.9604 58.6156 22.4008 64.2629C26.6413 67.9959 30.9455 70.4845 37.7048 73.1965C49.4697 77.8866 62.5099 79.0671 74.0516 76.4509C85.7847 73.7708 100.77 64.901 103.703 58.8708C104.66 56.8608 104.723 53.9893 103.831 52.3302C102.396 49.6182 100.292 47.7358 96.2424 45.5981L94.0743 44.4495L95.9235 43.2371C100.355 40.3018 103.799 35.7392 104.787 31.432C106.094 25.9123 103.639 20.3926 98.9524 18.2549C97.4539 17.5849 96.88 17.4892 94.7757 17.6168C92.0975 17.7764 90.6309 18.3826 87.8571 20.4564C86.9643 21.1584 86.0397 21.7008 85.8165 21.7008C85.4977 21.7008 85.4339 20.6798 85.5934 16.5001C85.689 13.5329 85.6252 10.6933 85.4658 9.83186C84.4137 4.88647 75.9965 1.02589 64.9011 0.419678C62.1592 0.292061 61.2346 0.323967 61.394 0.611122C61.5215 0.802551 62.5099 0.962074 63.7534 0.962074C67.8663 0.962074 74.785 2.39783 78.4196 4.02502C82.2456 5.71603 84.86 8.52372 84.86 10.8847C84.86 11.4909 84.5093 12.5757 84.063 13.3096C83.3934 14.522 83.2659 15.2877 82.9471 20.265C82.15 33.1549 80.779 41.227 78.4834 46.3C77.8139 47.7996 76.6023 50.7987 75.7733 52.9683C73.3821 59.3813 73.1908 59.6685 70.8314 60.849C65.6345 63.4653 56.8985 63.4014 51.574 60.7214C47.6842 58.7751 46.0582 56.5736 43.8263 50.1925C41.0206 42.0885 38.47 30.7301 37.5135 21.8603C36.3976 11.2357 36.3338 10.5657 36.8758 9.44898C38.9482 5.10982 47.206 1.60019 56.6434 1.05779C60.5969 0.834457 61.7766 0.323967 58.2376 0.387779C56.8347 0.419685 55.1768 0.483498 54.571 0.54731ZM98.7292 18.9569C100.642 19.8183 102.173 21.286 103.097 23.1046C104.149 25.0828 104.277 29.8686 103.384 32.8039C101.471 39.1212 94.0105 44.8962 84.8282 47.2253C82.692 47.7677 80.4921 48.5015 80.0138 48.8844L79.0892 49.5225L79.5993 48.3101C80.4602 46.2043 81.5123 45.4386 84.8282 44.3219C88.4947 43.1095 89.8338 42.4713 92.3845 40.6527C97.6452 36.9517 100.132 31.4958 98.793 26.7738C97.1989 21.286 90.3121 21.3179 87.3151 26.8057C86.231 28.7838 85.3064 28.7838 85.4339 26.8695C85.5934 24.3489 87.5382 21.5093 90.4396 19.5631C92.799 17.9997 96.1467 17.7445 98.7292 18.9569ZM96.6568 24.7318C97.9641 25.9761 98.3466 27.4119 98.1872 30.2834C98.0278 33.0592 97.1032 35.2288 95.1264 37.3983C93.5004 39.217 90.3758 41.4823 89.4831 41.4823C88.7817 41.4823 82.9789 40.0465 82.7876 39.8232C82.7558 39.7594 83.0427 37.7812 83.4572 35.4202C84.0311 32.1977 84.3499 31.0491 84.7644 30.8258C85.0832 30.6343 85.7528 30.2834 86.2948 29.9962C86.9006 29.6772 87.5382 28.9114 88.0803 27.7628C89.515 24.7637 91.3642 23.5194 94.0424 23.7108C95.3496 23.8065 95.9235 24.0299 96.6568 24.7318ZM39.9047 41.227C41.5307 47.6401 43.9539 53.5426 46.2813 56.9565C47.4929 58.7432 47.7799 60.179 46.9509 60.4023C46.6321 60.4661 46.1857 60.8809 45.9625 61.2638C45.6437 61.87 45.7393 62.0933 46.8871 63.1781C50.9363 67.0387 64.5504 67.8682 72.9357 64.7415C74.9762 63.9757 76.9849 62.1571 77.3675 60.6895C77.5269 60.0194 77.3994 59.7004 76.6979 59.0942C76.2197 58.6475 75.582 58.3923 75.2632 58.488C74.9125 58.5837 74.7212 58.5518 74.8168 58.4242C74.8806 58.2965 75.4864 57.4032 76.124 56.446C76.7617 55.4888 77.7501 53.7021 78.324 52.4578C79.2167 50.4797 79.5355 50.1287 80.7471 49.5544C81.5123 49.2034 82.6601 48.7887 83.2659 48.661C85.4658 48.1825 89.515 46.8105 91.3005 45.9171C92.3207 45.4067 93.3091 44.9919 93.5642 44.9919C94.2975 44.9919 98.6974 47.8634 100.26 49.3949C102.364 51.4368 103.161 53.0321 103.161 55.2017C103.161 62.9867 88.2397 71.0907 69.2373 73.5793C64.391 74.2175 53.9971 74.026 48.832 73.2284C41.6583 72.1117 33.6556 69.7826 28.9369 67.4216C23.6443 64.7734 19.5632 61.2319 18.0328 57.9137C17.1401 56.0631 17.0444 53.5107 17.714 51.8516C18.8937 49.0758 23.1341 45.8214 28.7456 43.3647C31.4557 42.2161 38.2468 39.9508 39.1714 39.887C39.3946 39.887 39.7134 40.4932 39.9047 41.227ZM85.7528 41.3546C86.9962 41.6737 88.0484 42.0566 88.0484 42.1523C88.0484 42.4075 83.9992 43.3966 82.9789 43.3966C82.2775 43.3966 82.1819 43.1095 82.5007 41.5142C82.6282 40.9399 82.8833 40.557 83.0746 40.6208C83.2659 40.6846 84.4774 41.0356 85.7528 41.3546ZM50.9044 61.519C53.9971 63.0505 56.7709 63.6248 61.107 63.6567C63.4026 63.6567 65.762 63.561 66.3678 63.4334C66.9736 63.3057 67.2924 63.3057 67.1011 63.3695C66.7823 63.4972 66.7823 63.7205 67.0373 64.1991C67.2286 64.55 67.2924 64.9329 67.1649 65.0286C67.0692 65.1244 65.1243 65.2839 62.8925 65.3477C59.9274 65.4434 58.0463 65.3477 56.1333 64.9648C51.6377 64.0715 48.1943 61.9976 48.1943 60.2109V59.5728L48.9277 60.2109C49.3103 60.5618 50.203 61.1681 50.9044 61.519Z" fill="#333333"/>
<path d="M92.5119 20.9351C90.0569 21.7327 89.3874 22.1156 89.0367 22.8494L88.6541 23.679L89.6424 22.8813C91.5873 21.2222 94.4249 20.967 96.848 22.1794L98.4103 22.9451L97.5176 22.1794C96.2741 21.0627 93.9148 20.4884 92.5119 20.9351Z" fill="#333333"/>
<path d="M40.2235 70.2293C41.7539 70.8674 46.1538 71.7608 49.9479 72.2713C54.6985 72.9094 65.6663 72.9094 69.5561 72.3032L72.2661 71.8565L68.1213 72.0798C58.0143 72.5584 49.8522 72.0798 42.6147 70.4845C39.4583 69.8145 39.0438 69.7507 40.2235 70.2293Z" fill="#333333"/>
<path d="M72.84 71.697C73.1269 71.7608 73.5733 71.7608 73.7965 71.697C73.9878 71.6013 73.7646 71.5375 73.2226 71.5375C72.7124 71.5375 72.5211 71.6013 72.84 71.697Z" fill="#333333"/>
<path d="M53.455 5.77991C46.2175 6.73708 40.893 9.03429 39.3945 11.9058C38.9482 12.7353 38.98 12.8311 39.809 13.5968C41.8814 15.5111 47.716 17.4574 53.7101 18.1912C58.3013 18.7655 68.1213 18.4465 72.2342 17.5531C76.2196 16.6916 79.5036 15.4473 80.9702 14.1711C81.9267 13.3416 82.0543 13.0863 81.863 12.2887C81.1615 9.57669 74.3704 6.48184 67.6749 5.87563L65.5706 5.6842L64.9011 7.15186L64.2315 8.61952L65.3793 8.81095C67.1967 9.0981 67.3242 9.28954 65.6025 9.0981C64.2634 8.97048 63.8808 9.0662 63.2113 9.6405C62.7649 10.0553 62.6055 10.1191 62.8287 9.80003C63.2113 9.28954 63.1156 9.25763 61.5534 9.25763C60.5969 9.25763 59.3534 9.38525 58.7795 9.54478C58.0462 9.76812 57.823 9.76812 57.9506 9.51288C58.2694 9.00239 53.6144 9.41716 51.3826 10.0553C48.0349 11.0443 48.0986 12.0334 51.542 12.9268C53.7738 13.5011 57.7911 13.533 62.733 13.0544C68.0575 12.512 72.4893 13.3416 73.4139 15.0645C73.8284 15.8302 73.5414 16.1493 72.2661 16.4683L71.3096 16.6916L71.9154 15.9897C72.4893 15.3516 72.4893 15.2878 71.9792 14.7135C71.3096 13.9797 68.9503 13.4054 66.7503 13.4054C65.9214 13.4054 63.4026 13.6925 61.107 14.0435C53.2637 15.224 48.8638 14.6816 47.4291 12.3206C47.1421 11.8739 47.2378 11.6186 47.9711 10.9805C48.4812 10.5658 48.8001 10.0872 48.7044 9.92765C48.4175 9.51287 51.1594 8.93857 55.5274 8.49189C57.6317 8.26855 59.3853 8.04521 59.4491 7.9495C60.6925 6.32231 60.9476 5.93944 60.9476 5.7161C60.9476 5.36514 56.4202 5.42895 53.455 5.77991ZM74.5936 9.80003C76.6341 10.4062 78.1645 11.7463 78.1645 12.863C78.1645 14.1392 77.6863 14.1392 77.1124 12.7992C76.5385 11.5229 75.2313 10.6296 72.3618 9.54478C71.0227 9.0662 70.8951 8.97048 71.7879 9.13001C72.3937 9.22572 73.669 9.51287 74.5936 9.80003ZM68.1851 9.44906C68.0894 9.54478 67.8025 9.57669 67.5793 9.48097C67.3242 9.38525 67.4199 9.28954 67.7706 9.28954C68.1213 9.25763 68.3126 9.35335 68.1851 9.44906Z" fill="#333333"/>
<path d="M61.2665 6.60929C60.8201 7.27931 60.3737 7.94933 60.2462 8.14076C60.1187 8.3322 60.7244 8.42791 61.9679 8.3641C63.7852 8.23648 63.8809 8.20457 64.3272 7.15169C64.9968 5.58831 64.9011 5.42878 63.4345 5.42878C62.2229 5.42878 61.9679 5.5564 61.2665 6.60929Z" fill="#333333"/>
<path d="M258.184 38.425C257.939 38.4683 257.639 38.4737 257.286 38.4411C255.308 38.1575 253.765 37.3858 252.658 36.126C251.545 34.8356 250.849 33.3927 250.568 31.7973C250.524 31.5519 250.484 31.3218 250.446 31.107C250.433 30.8562 250.423 30.6207 250.416 30.4005C250.384 28.6031 250.694 26.951 251.345 25.4442C252.027 23.932 252.859 22.6463 253.842 21.5871C254.85 20.4919 255.808 19.7377 256.715 19.3245C257.301 19.0629 257.893 18.832 258.49 18.6318C259.081 18.4009 259.668 18.234 260.251 18.1313C261.722 17.8716 263.036 17.9719 264.192 18.4323C265.348 18.8926 266.056 19.8591 266.315 21.3317C266.461 22.1601 266.333 22.9577 265.931 23.7246C265.559 24.4861 265.033 25.1799 264.353 25.806C263.699 26.3961 263.043 26.8914 262.387 27.2919C261.389 27.9107 260.22 28.4493 258.878 28.9075C257.567 29.3602 256.313 29.6921 255.118 29.9031C254.351 30.0383 253.638 30.1167 252.978 30.1383L252.986 30.1843C253.008 30.307 253.014 30.4325 253.005 30.5606C252.991 30.658 252.994 30.7681 253.016 30.8908C253.007 31.019 253.013 31.1444 253.035 31.2671C253.051 31.3591 253.067 31.4512 253.083 31.5432C253.251 32.4943 253.584 33.3055 254.081 33.9769C254.604 34.6122 255.172 35.1447 255.785 35.5743C256.393 35.9732 256.892 36.2963 257.284 36.5436C257.884 36.7223 258.313 36.9155 258.571 37.123C258.865 37.3559 259.025 37.549 259.053 37.7024C259.117 38.0705 258.828 38.3114 258.184 38.425ZM255.995 27.6131C256.914 27.4508 257.869 27.2191 258.859 26.9178C259.844 26.5859 260.73 26.1448 261.518 25.5945C262.134 25.138 262.684 24.5823 263.169 23.9272C263.649 23.2416 263.818 22.4999 263.678 21.7022C263.57 21.0886 263.243 20.6717 262.699 20.4515C262.154 20.2312 261.437 20.1995 260.548 20.3564C259.536 20.5349 258.465 20.9138 257.334 21.4929C256.927 21.6913 256.442 22.0775 255.879 22.6513C255.347 23.2196 254.829 23.9595 254.326 24.8707C253.817 25.7513 253.443 26.7664 253.203 27.9159C253.576 27.8817 253.998 27.8547 254.469 27.8349C254.965 27.779 255.473 27.7051 255.995 27.6131Z" fill="#333333"/>
<path d="M242.42 41.5388C242.114 41.5929 241.787 41.4449 241.441 41.0947C241.126 40.7392 240.879 40.0552 240.7 39.0428C240.484 37.8156 240.406 36.2952 240.466 34.4815C240.556 32.6624 240.732 30.7017 240.994 28.5994C241.286 26.4916 241.617 24.4244 241.987 22.3979L241.941 22.406C241.624 22.3987 241.42 22.229 241.33 21.897C241.137 21.5198 241.162 21.1201 241.403 20.6978C241.645 20.2756 241.904 20.0401 242.18 19.9914L242.456 19.9427C242.853 18.0696 243.239 16.4039 243.614 14.9458C244.015 13.4517 244.358 12.3473 244.643 11.6327C245.083 10.5427 245.689 9.67658 246.461 9.03424C247.227 8.36121 248.04 7.94897 248.898 7.7975C249.542 7.6839 250.182 7.7291 250.819 7.93311C251.455 8.13712 252.032 8.54145 252.55 9.14607C253.212 9.85178 253.673 10.4979 253.935 11.0844C254.221 11.6349 254.487 12.4263 254.732 13.4586L254.74 13.5046C254.784 13.75 254.724 13.9503 254.562 14.1055C254.399 14.2607 254.211 14.3572 253.996 14.3951C253.567 14.4708 253.256 14.3201 253.063 13.9429C252.895 13.5296 252.545 12.9746 252.011 12.2779C250.933 10.8233 249.934 10.1771 249.014 10.3393C248.064 10.507 247.163 11.5834 246.311 13.5684C246.171 13.8463 246.004 14.3344 245.811 15.0328C245.612 15.7005 245.409 16.4322 245.202 17.228C244.994 18.0238 244.807 18.7529 244.639 19.4152C244.909 19.3358 245.183 19.2718 245.458 19.2231C245.734 19.1744 246.01 19.1257 246.286 19.077C246.807 18.9851 247.347 18.9057 247.904 18.839C248.492 18.7669 249.162 18.712 249.914 18.6742C250.072 18.6778 250.245 18.7582 250.43 18.9152C250.616 19.0722 250.728 19.2581 250.766 19.4729C250.787 19.5956 250.75 19.7445 250.655 19.9195C250.584 20.0584 250.399 20.1703 250.097 20.2551C249.077 20.5617 247.971 20.8359 246.781 21.0775C245.616 21.2831 244.732 21.4707 244.13 21.6402C243.881 22.9179 243.644 24.3516 243.418 25.9415C243.187 27.5006 242.992 29.0851 242.833 30.6948C242.674 32.3045 242.576 33.8087 242.537 35.2073C242.525 36.5698 242.609 37.6778 242.791 38.5314C242.845 38.8382 242.971 39.1008 243.167 39.3192C243.369 39.5683 243.494 39.8309 243.543 40.107C243.565 40.2297 243.543 40.3759 243.478 40.5455C243.419 40.7458 243.282 40.9596 243.07 41.187C242.851 41.3837 242.635 41.5009 242.42 41.5388Z" fill="#333333"/>
<path d="M223.735 40.755C222.877 40.9065 222.001 40.8711 221.109 40.649C220.247 40.4215 219.498 40.0316 218.864 39.4793C218.229 38.927 217.839 38.2367 217.693 37.4083C217.476 36.1812 217.609 35.0506 218.091 34.0166C218.572 32.9826 219.247 32.0569 220.115 31.2395C221.013 30.4167 221.953 29.7446 222.936 29.2232C223.888 28.7072 224.962 28.3438 226.158 28.1328C227.415 27.911 228.667 27.9274 229.913 28.182C231.184 28.4006 232.16 29.0035 232.839 29.9907C232.944 29.1497 232.99 28.335 232.978 27.5463C232.96 26.727 232.899 26.0259 232.797 25.443C232.624 24.4612 232.292 23.7448 231.801 23.2935C231.342 22.8369 230.621 22.6951 229.64 22.8682C229.242 22.9386 228.809 23.1731 228.342 23.5719C227.869 23.9399 227.428 24.3974 227.019 24.9441C226.867 25.1606 226.751 25.3077 226.67 25.3853C226.619 25.4575 226.456 25.5179 226.18 25.5666C225.873 25.6207 225.609 25.5566 225.388 25.3743C225.196 25.1866 225.076 24.9547 225.028 24.6786C224.963 24.3104 225.044 23.9639 225.271 23.6391C225.499 23.3143 225.751 22.9534 226.029 22.5564C226.307 22.1595 226.685 21.7923 227.163 21.4549C227.666 21.0814 228.331 20.8216 229.159 20.6755C230.876 20.3726 232.203 20.5496 233.141 21.2067C234.078 21.8637 234.707 23.0972 235.026 24.9073C235.182 25.797 235.222 26.7391 235.144 27.7334C235.097 28.7223 235.015 29.7808 234.898 30.9086C234.833 31.616 234.707 32.429 234.521 33.3475C234.361 34.23 234.108 35.1287 233.764 36.0436C233.419 36.9585 232.946 37.7696 232.343 38.4769C232.161 38.6989 231.947 38.8315 231.702 38.8748C231.395 38.9289 231.116 38.8675 230.863 38.6906C230.611 38.5137 230.46 38.2872 230.412 38.0111C230.363 37.7349 230.452 37.4345 230.68 37.1097C230.968 36.7741 231.242 36.267 231.502 35.5885C231.793 34.9046 232.025 34.0727 232.2 33.0928C231.887 31.8511 231.127 31.0362 229.92 30.6481C228.745 30.2545 227.498 30.174 226.179 30.4066C225.413 30.5419 224.693 30.7637 224.021 31.0722C223.292 31.4222 222.59 31.9256 221.916 32.5824C221.236 33.2085 220.695 33.9051 220.293 34.672C219.921 35.4335 219.8 36.1824 219.93 36.9187C220.033 37.5016 220.416 37.9718 221.079 38.3292C221.774 38.6812 222.535 38.7842 223.362 38.6381C224.067 38.5137 224.617 38.401 225.01 38.3C225.434 38.1935 225.816 38.0312 226.157 37.8129C226.523 37.5585 226.972 37.1471 227.504 36.5787C227.747 36.3459 227.961 36.2133 228.145 36.1808C228.39 36.1376 228.603 36.1791 228.784 36.3055C228.964 36.4318 229.076 36.6177 229.119 36.8631C229.178 37.2006 229.061 37.5218 228.767 37.8268C227.876 38.8697 227.054 39.5842 226.3 39.9703C225.571 40.3203 224.716 40.5819 223.735 40.755Z" fill="#333333"/>
<path d="M206.661 46.0453C205.465 46.2563 204.436 46.1533 203.572 45.7363C202.708 45.3193 202.004 44.7318 201.46 43.9738C200.94 43.1797 200.602 42.3378 200.446 41.4481C200.267 40.4356 200.324 39.4133 200.616 38.3811C200.903 37.3182 201.308 36.2977 201.831 35.3197C202.355 34.3417 202.879 33.4584 203.403 32.6698C204.731 30.6957 206.03 29.1854 207.299 28.1389C208.6 27.087 209.679 26.4853 210.538 26.3338C211.396 26.1823 212.064 26.2068 212.542 26.4072C213.02 26.6076 213.371 26.8936 213.594 27.2654C213.848 27.6318 214.02 27.981 214.111 28.3131C214.269 28.8545 214.274 29.3282 214.124 29.7343C213.969 30.1096 213.707 30.3297 213.339 30.3946C213.002 30.4541 212.638 30.3603 212.247 30.113C211.855 29.8657 211.505 29.5796 211.194 29.2547C210.43 29.5794 209.772 29.8852 209.222 30.1721C208.667 30.4283 208.143 30.7738 207.651 31.2086C207.183 31.6074 206.651 32.1758 206.054 32.9138C204.997 34.2707 204.12 35.6593 203.422 37.0794C202.754 38.4942 202.548 39.9225 202.802 41.3645C203.148 43.328 204.332 44.1312 206.356 43.7742C207.674 43.5415 208.979 42.9633 210.27 42.0395C211.556 41.0851 212.623 39.9636 213.471 38.6752C213.673 38.3865 213.927 38.2151 214.234 38.161C214.479 38.1177 214.692 38.1593 214.872 38.2856C215.083 38.4066 215.21 38.5898 215.253 38.8352C215.302 39.1113 215.223 39.3784 215.015 39.6364C213.792 41.3073 212.523 42.7175 211.209 43.8669C209.924 45.0108 208.409 45.737 206.661 46.0453Z" fill="#333333"/>
<path d="M185.249 48.1629C183.563 48.4604 182.04 48.4286 180.68 48.0675C179.351 47.701 178.253 47.1197 177.386 46.3238C176.544 45.4917 176.028 44.5388 175.839 43.465C175.742 42.9128 175.734 42.329 175.815 41.7136C175.927 41.0928 176.151 40.4838 176.489 39.8865C176.916 39.0835 177.471 38.1948 178.153 37.2204C178.865 36.2406 179.693 35.2878 180.636 34.3622C181.61 33.4311 182.716 32.6192 183.953 31.9264C185.185 31.2029 186.552 30.7086 188.054 30.4435C189.158 30.2488 189.925 30.2083 190.356 30.3221C190.818 30.4304 191.152 30.6244 191.36 30.9042C191.562 31.1533 191.794 31.3969 192.057 31.6352C192.22 30.4044 192.433 29.1015 192.696 27.7264C192.96 26.3513 193.222 25.0556 193.481 23.8393C193.741 22.623 193.947 21.6377 194.099 20.8834C194.212 20.4521 194.343 19.9387 194.491 19.3432C194.664 18.7116 194.805 18.1648 194.913 17.7029C195.047 17.2048 195.113 16.9558 195.113 16.9558C195.236 16.3963 195.589 16.0652 196.171 15.9625C196.601 15.8867 197.026 15.9698 197.448 16.2117C197.87 16.4536 198.119 16.7893 198.195 17.2188C198.249 17.5256 198.183 17.8693 197.997 18.2501L197.951 18.2582C197.951 18.2582 197.84 18.4359 197.618 18.7914C197.391 19.1162 197.146 19.5231 196.885 20.0122C196.654 20.4958 196.494 20.9352 196.406 21.3304C196.2 22.3157 195.932 23.486 195.602 24.8412C195.297 26.1603 194.998 27.6049 194.706 29.1749C194.414 30.7449 194.188 32.3348 194.029 33.9445C193.895 35.5181 193.912 37.0493 194.08 38.5382C194.087 38.7584 194.009 38.946 193.847 39.1012C193.685 39.2564 193.481 39.3556 193.236 39.3989C192.899 39.4584 192.578 39.4358 192.275 39.3311C191.967 39.1957 191.817 38.9692 191.824 38.6516C191.901 38.195 191.918 37.7493 191.873 37.3143C191.853 36.8433 191.808 36.4084 191.738 36.0096C191.586 35.1505 191.319 34.4386 190.935 33.8737C190.576 33.2727 190.107 32.9442 189.528 32.8881C189.267 32.8394 188.995 32.824 188.714 32.842C188.433 32.86 188.154 32.8934 187.878 32.942C186.897 33.1152 185.941 33.5211 185.01 34.1598C184.074 34.7678 183.209 35.5058 182.413 36.3737C181.643 37.2055 180.955 38.0545 180.349 38.9207C179.743 39.7868 179.279 40.5645 178.958 41.2539C178.632 41.9125 178.528 42.5793 178.647 43.2543C178.787 44.0519 179.306 44.7513 180.202 45.3524C181.093 45.9228 182.487 46.1197 184.384 45.9431C184.543 45.9467 184.699 45.935 184.852 45.9079C185.005 45.8809 185.174 45.8511 185.358 45.8187C186.615 45.5969 187.891 45.2136 189.186 44.6688C190.506 44.0879 191.649 43.4907 192.616 42.8772C193.384 42.3937 194.05 41.865 194.612 41.2912C195.175 40.7174 195.664 40.1725 196.079 39.6564C196.286 39.3984 196.528 39.245 196.804 39.1964C197.08 39.1477 197.329 39.2145 197.55 39.3968C197.797 39.543 197.943 39.7388 197.986 39.9842C198.04 40.291 197.951 40.5915 197.718 40.8856C197.303 41.4017 196.766 42.0341 196.108 42.783C195.475 43.4957 194.675 44.1588 193.708 44.7723C192.569 45.4795 191.219 46.1606 189.659 46.8154C188.099 47.4703 186.629 47.9195 185.249 48.1629Z" fill="#333333"/>
<path d="M164.525 51.345C164.341 51.3775 164.157 51.4099 163.974 51.4424C163.784 51.4441 163.595 51.4459 163.405 51.4477C162.121 51.5161 161.035 51.091 160.146 50.1723C159.282 49.2175 158.734 48.0805 158.502 46.7613C158.35 45.9022 158.36 44.9674 158.529 43.9569C158.724 42.9102 159.135 41.9204 159.761 40.9875C160.381 40.0239 161.154 39.2074 162.079 38.538C163.004 37.8687 163.988 37.442 165.03 37.2581C165.552 37.1661 166.053 37.1409 166.534 37.1825C167.047 37.2186 167.335 37.4208 167.4 37.789C167.443 38.0344 167.349 38.3042 167.116 38.5983C166.908 38.8563 166.582 38.9772 166.137 38.9609C166.009 38.9519 165.807 38.9717 165.531 39.0204C164.795 39.1502 164.079 39.4821 163.383 40.0162C162.687 40.5503 162.091 41.2089 161.597 41.9921C161.097 42.7445 160.78 43.5439 160.645 44.3903C160.538 45.0417 160.539 45.6743 160.647 46.2879C160.815 47.2389 161.172 48.0141 161.721 48.6133C162.299 49.2071 162.88 49.4526 163.463 49.3498C163.621 49.3535 163.762 49.3444 163.885 49.3228C164.038 49.2958 164.176 49.2714 164.298 49.2498C165.647 49.0118 166.87 48.4164 167.967 47.4637C169.089 46.4749 169.908 45.4762 170.426 44.4674C170.671 43.8864 170.82 43.3856 170.873 42.9651C170.92 42.514 170.919 42.1504 170.87 41.8742C170.762 41.2606 170.505 40.8789 170.099 40.7291C169.694 40.5792 169.34 40.5467 169.039 40.6315C168.559 40.7794 168.097 40.94 167.654 41.1131C167.205 41.2556 166.825 41.4333 166.515 41.6462C166.342 41.7401 166.209 41.7951 166.117 41.8113C165.811 41.8654 165.528 41.7887 165.271 41.5811C165.043 41.3681 164.905 41.1236 164.857 40.8475C164.77 40.3566 164.944 39.9939 165.376 39.7593C165.779 39.5302 166.26 39.3029 166.821 39.0774C167.382 38.8519 167.963 38.6544 168.566 38.4848C168.683 38.4325 168.788 38.3982 168.88 38.382C168.972 38.3658 169.079 38.3468 169.202 38.3252C170.305 38.1304 171.223 38.3164 171.955 38.8832C172.682 39.4193 173.129 40.1629 173.297 41.1139C173.399 41.6968 173.372 42.3501 173.215 43.0737C173.058 43.7974 172.727 44.5201 172.222 45.2419C171.795 46.0449 171.214 46.8749 170.48 47.732C169.746 48.5891 168.885 49.3578 167.899 50.038C166.907 50.6875 165.782 51.1232 164.525 51.345Z" fill="#333333"/>
<path d="M147.056 54.4275C146.872 54.46 146.688 54.4924 146.504 54.5249C146.314 54.5267 146.125 54.5284 145.936 54.5302C144.652 54.5986 143.565 54.1735 142.676 53.2548C141.813 52.3 141.265 51.163 141.032 49.8438C140.881 48.9848 140.89 48.05 141.06 47.0394C141.254 45.9927 141.665 45.0029 142.291 44.07C142.911 43.1064 143.684 42.29 144.609 41.6206C145.535 40.9512 146.518 40.5245 147.561 40.3406C148.082 40.2486 148.583 40.2234 149.065 40.265C149.577 40.3012 149.865 40.5033 149.93 40.8715C149.974 41.1169 149.879 41.3867 149.646 41.6808C149.439 41.9389 149.112 42.0597 148.667 42.0434C148.539 42.0344 148.337 42.0542 148.061 42.1029C147.325 42.2327 146.609 42.5647 145.913 43.0987C145.217 43.6328 144.622 44.2914 144.127 45.0746C143.628 45.827 143.31 46.6264 143.175 47.4728C143.068 48.1243 143.069 48.7568 143.177 49.3704C143.345 50.3214 143.703 51.0966 144.251 51.6958C144.83 52.2896 145.41 52.5351 145.993 52.4323C146.152 52.436 146.292 52.427 146.415 52.4053C146.568 52.3783 146.706 52.3539 146.829 52.3323C148.178 52.0943 149.4 51.4989 150.497 50.5462C151.619 49.5574 152.439 48.5587 152.956 47.55C153.202 46.9689 153.351 46.4681 153.403 46.0477C153.45 45.5965 153.449 45.2329 153.4 44.9568C153.292 44.3432 153.035 43.9614 152.63 43.8116C152.224 43.6618 151.87 43.6292 151.569 43.714C151.089 43.8619 150.628 44.0225 150.184 44.1957C149.735 44.3382 149.355 44.5159 149.045 44.7288C148.872 44.8226 148.74 44.8776 148.648 44.8938C148.341 44.9479 148.059 44.8712 147.801 44.6636C147.574 44.4506 147.436 44.2061 147.387 43.93C147.301 43.4391 147.474 43.0764 147.907 42.8419C148.309 42.6127 148.79 42.3854 149.351 42.1599C149.912 41.9344 150.494 41.7369 151.096 41.5673C151.213 41.515 151.318 41.4807 151.41 41.4645C151.502 41.4483 151.609 41.4293 151.732 41.4077C152.835 41.213 153.753 41.399 154.485 41.9657C155.212 42.5018 155.659 43.2454 155.827 44.1964C155.93 44.7794 155.902 45.4326 155.745 46.1563C155.588 46.8799 155.257 47.6026 154.752 48.3244C154.325 49.1274 153.744 49.9575 153.01 50.8146C152.276 51.6717 151.416 52.4403 150.429 53.1205C149.437 53.7701 148.313 54.2057 147.056 54.4275Z" fill="#333333"/>
<path d="M132.001 56.467C130.795 56.6167 129.775 56.4803 128.942 56.0579C128.109 55.6355 127.387 55.0353 126.775 54.2574C126.189 53.4435 125.639 52.56 125.123 51.6071C124.638 50.6488 124.128 49.7265 123.592 48.8404C123.309 49.2067 122.925 49.7173 122.44 50.3724C121.98 50.9913 121.485 51.6797 120.954 52.4376C120.424 53.1954 119.919 53.9172 119.439 54.6029C118.96 55.2886 118.571 55.8633 118.273 56.3271C117.804 57.0741 117.24 57.7273 116.58 58.2867C115.95 58.8406 115.359 59.1663 114.808 59.2636C114.378 59.3394 113.983 59.2509 113.623 58.9982C113.293 58.7401 113.066 58.2582 112.941 57.5526C112.914 57.3992 112.887 57.2458 112.86 57.0924C112.864 56.9336 112.865 56.7594 112.863 56.5699C112.842 54.8339 112.859 53.4073 112.915 52.2903C112.971 51.1732 113.082 50.1888 113.248 49.337C113.439 48.4492 113.674 47.5379 113.952 46.6031C114.141 46.0635 114.481 45.7505 114.972 45.6639C115.248 45.6152 115.512 45.6793 115.764 45.8562C116.011 46.0024 116.17 46.275 116.24 46.6738C116.278 46.8885 116.259 47.3189 116.183 47.965C116.108 48.611 115.982 49.1551 115.807 49.5972C115.587 50.1422 115.352 51.0535 115.103 52.3312C114.885 53.6034 114.872 54.9659 115.065 56.4187C115.913 55.6681 116.756 54.7126 117.595 53.5524C118.428 52.3614 119.279 51.1831 120.149 50.0174C121.049 48.8463 121.979 47.9387 122.941 47.2946C123.19 47.0925 123.444 46.9211 123.704 46.7804C123.958 46.609 124.192 46.5044 124.407 46.4665C124.683 46.4178 124.916 46.4873 125.108 46.675C125.329 46.8573 125.501 47.2065 125.624 47.7227C125.757 48.3002 125.992 49.0022 126.327 49.8288C126.688 50.6193 127.125 51.3962 127.639 52.1597C128.178 52.887 128.772 53.4781 129.421 53.933C130.101 54.3824 130.839 54.5368 131.636 54.3962C132.25 54.288 132.81 53.9677 133.316 53.4354C133.823 52.9031 134.25 52.2743 134.596 51.5489C134.937 50.7928 135.14 50.061 135.205 49.3536C135.261 48.7743 135.269 48.2826 135.23 47.8783C135.221 47.4687 135.195 47.1411 135.151 46.8957C135.059 46.3741 134.933 46.0168 134.773 45.8237C134.643 45.6252 134.554 45.3878 134.505 45.1117C134.424 44.6515 134.5 44.2744 134.732 43.9802C134.965 43.6861 135.235 43.512 135.541 43.4579C135.971 43.3822 136.407 43.5266 136.851 43.8912C137.319 44.2197 137.635 44.8442 137.797 45.7645C137.932 46.5315 137.93 47.4176 137.791 48.4228C137.609 49.7203 137.214 50.9763 136.606 52.1907C135.993 53.3745 135.28 54.3543 134.469 55.1302C133.657 55.906 132.835 56.3517 132.001 56.467Z" fill="#333333"/>
<path d="M274.956 120.83C274.455 121.308 273.699 121.441 272.688 121.23C271.676 121.018 270.756 120.498 269.928 119.669C269.117 118.935 268.73 118.125 268.769 117.241C269.075 114.554 269.929 112.209 271.33 110.207C272.142 109.284 273.162 108.714 274.391 108.497C275.525 108.297 276.575 108.453 277.542 108.965C278.587 109.365 279.115 110.15 279.126 111.318C279.115 111.807 278.89 113.017 278.45 114.947C278.105 116.861 276.941 118.822 274.956 120.83Z" fill="#333333"/>
<path d="M230.211 120.388C228.604 120.671 226.909 120.727 225.125 120.554C223.34 120.381 221.514 119.972 219.646 119.327C216.211 118.08 213.629 116.147 211.901 113.526C210.173 110.906 209.025 107.988 208.459 104.773C208.192 103.26 208.028 101.777 207.967 100.325C207.89 98.7789 207.907 97.2158 208.018 95.636C208.224 92.3818 209.047 89.3113 210.487 86.4244C211.911 83.4429 213.646 80.8454 215.691 78.6317C217.737 76.418 219.806 74.883 221.896 74.0266C222.163 73.882 222.532 73.768 223.005 73.6847C224.328 73.4512 225.481 73.6377 226.465 74.2442C227.449 74.8507 228.024 75.6268 228.191 76.5724C228.391 77.7073 227.888 78.7224 226.681 79.6178L226.706 79.7597C224.699 81.0889 222.937 82.4237 221.419 83.7641C219.979 84.9933 218.795 86.5674 217.866 88.4864C216.938 90.4054 216.237 93.0643 215.764 96.4631C215.497 98.2654 215.613 100.585 216.113 103.422C216.497 105.597 217.147 107.628 218.064 109.514C219.058 111.288 220.37 112.373 221.999 112.768C223.722 113.147 225.481 113.178 227.277 112.861C231.151 112.177 234.746 110.178 238.059 106.863C241.356 103.453 244.211 100.024 246.624 96.5759C248.803 93.461 250.736 90.0486 252.42 86.3384C254.183 82.5171 255.618 79.0461 256.724 75.9256C257.814 72.7105 258.384 70.4159 258.435 69.0419C258.529 67.3675 259.427 66.3803 261.128 66.0801C262.168 65.8967 263.188 66.1555 264.188 66.8566C265.172 67.463 265.592 68.4616 265.447 69.8523C265.23 71.9383 264.554 74.739 263.42 78.2545C262.38 81.7533 260.987 85.4607 259.241 89.3767C257.573 93.1813 255.713 96.7273 253.661 100.015C251.998 102.746 250.014 105.582 247.706 108.525C245.382 111.373 242.764 113.931 239.851 116.2C236.921 118.375 233.708 119.771 230.211 120.388Z" fill="#333333"/>
<path d="M170.17 139.319C168.847 139.553 167.488 139.305 166.093 138.576C164.714 137.942 163.825 136.49 163.425 134.22C163.375 133.936 163.325 133.653 163.275 133.369C163.208 132.991 163.189 132.604 163.217 132.209C163.23 120.116 163.951 109.555 165.381 100.527C166.811 91.4986 168.574 83.533 170.671 76.6299C172.767 69.7268 174.689 63.4885 176.435 57.9148C176.941 56.3629 177.75 55.1476 178.862 54.2688C180.052 53.2788 181.213 52.6837 182.347 52.4836C184.427 52.1168 185.608 52.7372 185.891 54.3449C186.091 55.4797 185.749 56.8564 184.865 58.4751C183.28 61.0949 181.643 64.7967 179.952 69.5804C178.356 74.3475 176.852 79.6347 175.439 85.442C174.009 91.1547 172.872 96.8647 172.026 102.572C172.699 101.966 173.38 101.407 174.069 100.895C174.742 100.289 175.376 99.7382 175.971 99.2432C178.039 97.7082 180.421 96.0202 183.117 94.1793C185.891 92.2272 188.699 90.4642 191.54 88.8903C194.364 87.2219 196.924 85.9901 199.22 85.195C199.675 85.017 200.179 84.8307 200.729 84.6361C201.374 84.4248 201.98 84.2691 202.547 84.1691C203.208 84.0524 203.761 84.1498 204.206 84.4614C204.745 84.7563 205.106 85.4239 205.29 86.4641C205.623 88.3555 205.32 89.6766 204.38 90.4274C203.535 91.1616 202.562 91.7233 201.462 92.1125C199.699 92.6185 197.492 93.6418 194.841 95.1823C192.267 96.6115 189.632 98.2466 186.935 100.088C184.317 101.817 182.021 103.441 180.047 104.96C178.807 105.666 177.759 106.631 176.903 107.854C176.03 108.984 175.424 109.968 175.085 110.808C174.729 111.553 174.724 111.798 175.068 111.542C175.518 112.438 176.53 113.478 178.103 114.663C179.676 115.849 181.485 116.992 183.531 118.094C185.654 119.084 187.713 119.988 189.709 120.806C191.782 121.513 193.475 121.995 194.787 122.251C197.077 122.529 198.731 123.066 199.748 123.862C200.843 124.546 201.457 125.267 201.59 126.023C201.724 126.78 201.462 127.508 200.806 128.209C200.245 128.893 199.444 129.327 198.405 129.51C198.027 129.577 197.537 129.566 196.937 129.477C194.725 129.087 191.87 128.372 188.374 127.331C184.972 126.274 181.615 124.916 178.302 123.258C174.989 121.6 172.377 119.769 170.465 117.766L170.323 117.791C170.312 119.939 170.256 122.386 170.155 125.134C170.149 127.866 170.335 130.027 170.713 131.618C170.813 132.185 171.308 132.78 172.197 133.404C173.164 133.915 173.723 134.597 173.873 135.448C174.023 136.299 173.644 137.195 172.738 138.135C172.066 138.741 171.209 139.136 170.17 139.319Z" fill="#333333"/>
<path d="M123.459 140.394C122.892 140.495 122.325 140.595 121.758 140.695C121.174 140.7 120.59 140.706 120.007 140.711C116.049 140.922 112.7 139.611 109.96 136.78C107.297 133.837 105.608 130.332 104.891 126.265C104.425 123.617 104.453 120.736 104.976 117.621C105.577 114.394 106.842 111.343 108.771 108.468C110.684 105.498 113.066 102.981 115.918 100.917C118.77 98.854 121.803 97.5388 125.016 96.9719C126.622 96.6884 128.168 96.6107 129.652 96.7389C131.23 96.8504 132.12 97.4735 132.32 98.6084C132.453 99.3649 132.161 100.196 131.444 101.103C130.804 101.899 129.798 102.271 128.425 102.221C128.031 102.193 127.408 102.254 126.557 102.404C124.289 102.804 122.082 103.828 119.936 105.474C117.79 107.12 115.956 109.15 114.432 111.564C112.892 113.884 111.914 116.348 111.496 118.957C111.168 120.965 111.17 122.915 111.504 124.806C112.02 127.738 113.123 130.127 114.813 131.974C116.597 133.804 118.387 134.561 120.183 134.244C120.672 134.256 121.105 134.228 121.483 134.161C121.956 134.078 122.381 134.003 122.759 133.936C126.917 133.202 130.686 131.367 134.067 128.43C137.525 125.383 140.052 122.304 141.647 119.195C142.404 117.404 142.862 115.86 143.024 114.564C143.169 113.173 143.166 112.052 143.016 111.201C142.683 109.31 141.891 108.133 140.64 107.671C139.389 107.209 138.3 107.109 137.371 107.37C135.893 107.826 134.47 108.321 133.102 108.855C131.718 109.294 130.548 109.842 129.591 110.498C129.058 110.788 128.649 110.957 128.366 111.007C127.421 111.174 126.551 110.937 125.756 110.298C125.056 109.641 124.63 108.887 124.48 108.036C124.214 106.523 124.748 105.405 126.082 104.682C127.322 103.976 128.806 103.275 130.535 102.58C132.264 101.885 134.056 101.276 135.913 100.753C136.275 100.592 136.597 100.486 136.88 100.436C137.164 100.386 137.495 100.328 137.873 100.261C141.275 99.661 144.104 100.234 146.361 101.981C148.601 103.634 149.979 105.926 150.496 108.857C150.812 110.654 150.729 112.668 150.245 114.899C149.761 117.129 148.74 119.357 147.184 121.582C145.866 124.057 144.076 126.616 141.813 129.258C139.55 131.9 136.898 134.269 133.857 136.366C130.799 138.368 127.333 139.711 123.459 140.394Z" fill="#333333"/>
<path d="M92.0745 150.759C89.712 151.176 87.8999 150.569 86.6383 148.939C85.4711 147.292 84.6626 145.192 84.2127 142.639C83.6295 139.329 83.541 135.786 83.9474 132.009C84.337 128.137 84.8433 124.927 85.4662 122.38C86.8957 116.667 87.4604 112.959 87.1605 111.257C86.9272 109.933 86.1963 109.38 84.9677 109.596C84.6842 109.646 84.3535 109.705 83.9755 109.771C83.692 109.822 83.3779 109.974 83.0332 110.23C80.5204 111.454 77.7157 113.509 74.619 116.395C71.6168 119.265 68.6647 122.419 65.7625 125.856C62.8603 129.294 60.4223 132.601 58.4484 135.777C57.392 137.523 56.4717 139.489 55.6876 141.675C54.9035 143.862 54.2474 145.391 53.7192 146.264C52.8963 147.677 51.776 148.509 50.3585 148.759C49.4135 148.926 48.5046 148.745 47.632 148.216C46.8372 147.576 46.4482 146.475 46.4651 144.912C46.4379 140.334 46.4661 137.452 46.5497 136.267C46.6165 134.988 46.6972 134.34 46.7917 134.323L46.5418 132.905C46.1419 130.635 45.6252 128.532 44.9918 126.596C44.4362 124.549 43.6804 123.025 42.7244 122.023C41.8629 121.005 40.7651 120.858 39.4308 121.581C37.0126 122.787 34.3496 124.817 31.4419 127.671C28.5343 130.524 25.7238 133.653 23.0107 137.057C20.2975 140.461 18.0235 143.592 16.1887 146.451C14.2927 149.516 13.1639 151.958 12.8023 153.777C12.5352 155.579 12.4017 156.48 12.4017 156.48C11.7178 157.576 10.9978 158.191 10.2418 158.324C8.44627 158.641 7.26522 157.192 6.69867 153.976C6.19877 151.139 6.15198 147.832 6.5583 144.055C6.96462 140.278 7.61553 136.507 8.51103 132.741C9.48436 128.864 10.3993 125.484 11.2557 122.603C11.8396 120.94 12.8876 119.975 14.3996 119.708C15.4392 119.525 16.3564 119.753 17.1512 120.393C18.0405 121.016 18.5073 122.006 18.5516 123.363C18.6516 123.931 18.2845 125.166 17.4504 127.068C16.5997 128.876 15.7683 131.07 14.9564 133.651C14.2223 136.121 13.9467 138.705 14.1298 141.403C14.8861 139.612 15.5839 138.318 16.2232 137.523C16.9405 136.616 17.805 135.44 18.8169 133.994C20.9964 130.879 22.8979 128.398 24.5213 126.552C26.2393 124.688 28.0851 122.997 30.0587 121.479C32.0323 119.961 34.5006 118.209 37.4638 116.223C38.231 115.6 39.0621 115.064 39.9571 114.613C40.8522 114.163 41.7722 113.854 42.7172 113.687C44.2293 113.421 45.6995 113.746 47.128 114.664C48.5398 115.488 49.8654 117.204 51.1046 119.813C52.4384 122.406 53.5163 126.311 54.3383 131.529C55.478 130.255 56.4287 129.015 57.1905 127.808C58.03 126.49 58.9558 125.107 59.9677 123.661C62.225 120.435 64.2432 117.787 66.0224 115.718C67.8793 113.538 69.8724 111.577 72.0017 109.837C74.2088 107.984 76.8801 106.002 80.0156 103.888C80.9718 103.232 82.1254 102.59 83.4762 101.961C84.8105 101.238 86.1391 100.76 87.4621 100.527C89.0687 100.243 90.5695 100.466 91.9647 101.195C93.3599 101.924 94.2824 103.565 94.7323 106.118C95.0323 107.821 95.0764 110.007 94.8648 112.677C94.7311 115.236 94.1775 118.454 93.2042 122.331C92.3698 125.891 91.7662 129.654 91.3932 133.62C91.1147 137.57 91.0031 140.807 91.0583 143.333C92.3644 144.662 93.1758 146.225 93.4924 148.022C93.6091 148.684 93.5673 149.277 93.3671 149.8C93.1669 150.322 92.7361 150.642 92.0745 150.759Z" fill="#333333"/>
</g>
<defs>
<clipPath id="clip0_14_195">
<rect width="280.723" height="165.466" fill="white"/>
</clipPath>
</defs>
</svg>
